{
  "accessors": [
    {
      "bufferView": 2,
      "componentType": 5126,
      "count": 1906,
      "max": [
        0.086284741759300232,
        0.17889055609703064,
        0.28428861498832703
      ],
      "min": [
        -0.086284741759300232,
        -0.33771106600761414,
        -0.010049473494291306
      ],
      "type": "VEC3"
    },
    {
      "bufferView": 2,
      "byteOffset": 22872,
      "componentType": 5126,
      "count": 1906,
      "max": [
        0.99965459108352661,
        0.99989205598831177,
        1
      ],
      "min": [
        -0.99965459108352661,
        -0.99820905923843384,
        -1
      ],
      "type": "VEC3"
    },
    {
      "bufferView": 3,
      "componentType": 5126,
      "count": 1906,
      "max": [
        1,
        0.99999171495437622,
        0.99987727403640747,
        1
      ],
      "min": [
        -1,
        -0.99999147653579712,
        -0.99999761581420898,
        -1
      ],
      "type": "VEC4"
    },
    {
      "bufferView": 1,
      "componentType": 5126,
      "count": 1906,
      "max": [
        0.99253404140472412,
        0.99972617626190186
      ],
      "min": [
        0.00027385202702134848,
        0.00027385202702134848
      ],
      "type": "VEC2"
    },
    {
      "bufferView": 1,
      "byteOffset": 15248,
      "componentType": 5126,
      "count": 1906,
      "max": [
        0.99253404140472412,
        0.99972617626190186
      ],
      "min": [
        0.00027385202702134848,
        0.00027385202702134848
      ],
      "type": "VEC2"
    },
    {
      "bufferView": 1,
      "byteOffset": 30496,
      "componentType": 5126,
      "count": 1906,
      "max": [
        0.99253404140472412,
        0.99972617626190186
      ],
      "min": [
        0.00027385202702134848,
        0.00027385202702134848
      ],
      "type": "VEC2"
    },
    {
      "bufferView": 0,
      "componentType": 5125,
      "count": 8628,
      "max": [
        1905
      ],
      "min": [
        0
      ],
      "type": "SCALAR"
    }
  ],
  "asset": {
    "extras": {
      "author": "vojtaklemperer (https://sketchfab.com/vojtaklemperer)",
      "license": "CC-BY-4.0 (http://creativecommons.org/licenses/by/4.0/)",
      "source": "https://sketchfab.com/3d-models/wooden-goose-statue-mid-poly-1537e0ce8df542ba9c4ea1ac70f3e7f9",
      "title": "wooden goose statue - mid poly"
    },
    "generator": "Sketchfab-7.98.1",
    "version": "2.0"
  },
  "bufferViews": [
    {
      "buffer": 0,
      "byteLength": 34512,
      "byteOffset": 0,
      "name": "floatBufferViews",
      "target": 34963
    },
    {
      "buffer": 0,
      "byteLength": 45744,
      "byteOffset": 34512,
      "byteStride": 8,
      "name": "floatBufferViews",
      "target": 34962
    },
    {
      "buffer": 0,
      "byteLength": 45744,
      "byteOffset": 80256,
      "byteStride": 12,
      "name": "floatBufferViews",
      "target": 34962
    },
    {
      "buffer": 0,
      "byteLength": 30496,
      "byteOffset": 126000,
      "byteStride": 16,
      "name": "floatBufferViews",
      "target": 34962
    }
  ],
  "buffers": [
    {
      "byteLength": 156496,
      "uri": "scene.bin"
    }
  ],
  "images": [
    {
      "uri": "textures/goose_baseColor.png"
    },
    {
      "uri": "textures/goose_metallicRoughness.png"
    },
    {
      "uri": "textures/goose_normal.png"
    }
  ],
  "materials": [
    {
      "doubleSided": true,
      "emissiveFactor": [
        0,
        0,
        0
      ],
      "name": "goose",
      "normalTexture": {
        "index": 2,
        "scale": 1,
        "texCoord": 0
      },
      "pbrMetallicRoughness": {
        "baseColorFactor": [
          1,
          1,
          1,
          1
        ],
        "baseColorTexture": {
          "index": 0,
          "texCoord": 0
        },
        "metallicFactor": 1,
        "metallicRoughnessTexture": {
          "index": 1,
          "texCoord": 0
        },
        "roughnessFactor": 1
      }
    }
  ],
  "meshes": [
    {
      "name": "goose_goose_0",
      "primitives": [
        {
          "attributes": {
            "NORMAL": 1,
            "POSITION": 0,
            "TANGENT": 2,
            "TEXCOORD_0": 3,
            "TEXCOORD_1": 4,
            "TEXCOORD_2": 5
          },
          "indices": 6,
          "material": 0,
          "mode": 4
        }
      ]
    }
  ],
  "nodes": [
    {
      "children": [
        1
      ],
      "name": "RootNode (gltf orientation matrix)",
      "rotation": [
        -0.70710678118654746,
        -0,
        -0,
        0.70710678118654757
      ]
    },
    {
      "children": [
        2
      ],
      "name": "RootNode (model correction matrix)"
    },
    {
      "children": [
        3
      ],
      "matrix": [
        1,
        0,
        0,
        0,
        0,
        0,
        1,
        0,
        0,
        -1,
        0,
        0,
        0,
        0,
        0,
        1
      ],
      "name": "52dc86674dba4db1825ff413eb4a472f.fbx"
    },
    {
      "children": [
        4
      ],
      "name": "RootNode"
    },
    {
      "children": [
        5
      ],
      "matrix": [
        100,
        0,
        0,
        0,
        -0,
        -1.6292067939183141e-05,
        -99.999999999998678,
        0,
        0,
        99.999999999998678,
        -1.6292067939183141e-05,
        0,
        -2.6217124920123978e-14,
        1.0085768699645996,
        -1.4621803760528564,
        1
      ],
      "name": "goose"
    },
    {
      "mesh": 0,
      "name": "goose_goose_0"
    }
  ],
  "samplers": [
    {
      "magFilter": 9729,
      "minFilter": 9987,
      "wrapS": 10497,
      "wrapT": 10497
    }
  ],
  "scene": 0,
  "scenes": [
    {
      "name": "OSG_Scene",
      "nodes": [
        0
      ]
    }
  ],
  "textures": [
    {
      "sampler": 0,
      "source": 0
    },
    {
      "sampler": 0,
      "source": 1
    },
    {
      "sampler": 0,
      "source": 2
    }
  ]
}

